<svg width="74" height="72" viewBox="0 0 74 72" fill="none" xmlns="http://www.w3.org/2000/svg">
<path d="M37.0424 57.8793C44.0589 57.8793 49.7673 52.3252 49.7673 45.4977C49.7673 38.6708 44.0589 33.1167 37.0424 33.1167C30.0253 33.1167 24.3168 38.6708 24.3168 45.4977C24.3168 52.3252 30.0253 57.8793 37.0424 57.8793ZM29.5459 43.5493C30.3826 42.7347 31.7393 42.7347 32.5766 43.5493L35.3735 46.2706L41.5081 40.3018C42.3454 39.4877 43.7021 39.4877 44.5388 40.3018C45.3755 41.1158 45.3755 42.4359 44.5388 43.2505L36.8888 50.6937C36.4868 51.0848 35.942 51.304 35.3735 51.304C34.8049 51.304 34.2601 51.0848 33.8582 50.6937L29.5459 46.4975C28.7092 45.6834 28.7092 44.3634 29.5459 43.5493Z" fill="#911F27"/>
<path d="M1.58984 65.2572C1.58984 68.975 4.69896 72.0001 8.52 72.0001H65.5636C69.3846 72.0001 72.4937 68.975 72.4937 65.2572V23.1653H1.58984V65.2572ZM37.0423 28.9468C46.4222 28.9468 54.053 36.3714 54.053 45.4977C54.053 54.6241 46.4222 62.0492 37.0423 62.0492C27.6625 62.0492 20.0311 54.6241 20.0311 45.4977C20.0311 36.3714 27.6625 28.9468 37.0423 28.9468Z" fill="#911F27"/>
<path d="M72.4931 18.9954V12.5722C72.4931 8.85388 69.3846 5.82935 65.563 5.82935H61.6561V9.57404C61.6561 10.7265 60.6958 11.6587 59.513 11.6587C58.3291 11.6587 57.3704 10.7265 57.3704 9.57404V5.82935H53.1587V9.57404C53.1587 10.7265 52.2006 11.6587 51.0161 11.6587C49.8333 11.6587 48.873 10.7265 48.873 9.57404V5.82935H25.2117V9.57404C25.2117 10.7265 24.2519 11.6587 23.0691 11.6587C21.8846 11.6587 20.926 10.7265 20.926 9.57404V5.82935H16.7148V9.57404C16.7148 10.7265 15.7545 11.6587 14.5717 11.6587C13.3889 11.6587 12.4291 10.7265 12.4291 9.57404V5.82935H8.52055C4.69894 5.82935 1.59039 8.85388 1.59039 12.5722V18.9954H72.4931Z" fill="#911F27"/>
<path d="M61.6561 2.08466C61.6561 0.933838 60.6958 0 59.513 0C58.3291 0 57.3704 0.933838 57.3704 2.08466V5.82935H61.6561V2.08466Z" fill="#911F27"/>
<path d="M53.1587 2.08466C53.1587 0.933838 52.2006 0 51.0161 0C49.8333 0 48.873 0.933838 48.873 2.08466V5.82935H53.1587V2.08466Z" fill="#911F27"/>
<path d="M25.2117 2.08466C25.2117 0.933838 24.2519 0 23.0691 0C21.8846 0 20.926 0.933838 20.926 2.08466V5.82935H25.2117V2.08466Z" fill="#911F27"/>
<path d="M16.7148 2.08466C16.7148 0.933838 15.7545 0 14.5717 0C13.3889 0 12.4291 0.933838 12.4291 2.08466V5.82935H16.7148V2.08466Z" fill="#911F27"/>
</svg>
