<svg width="88" height="71" viewBox="0 0 88 71" fill="none" xmlns="http://www.w3.org/2000/svg">
<g clip-path="url(#clip0)">
<path d="M46.583 0C40.8955 0 36.0987 3.87019 36.0987 8.45897C36.0987 13.0478 40.8955 16.9179 46.583 16.9179C52.2705 16.9179 56.8955 13.0478 56.8955 8.45897C56.8955 3.87019 52.2705 0 46.583 0Z" fill="#911F27"/>
<path d="M58.0285 16.918C55.1951 19.4527 51.137 21.0781 46.583 21.0781C42.029 21.0781 37.799 19.4527 34.9657 16.918C32.492 19.131 30.9424 22.0302 30.9424 25.2383V27.3183C30.9424 28.4681 32.0955 29.3984 33.5205 29.3984H59.4736C60.8986 29.3984 62.0517 28.4681 62.0517 27.3183V25.2383C62.0517 22.0302 60.5021 19.131 58.0285 16.918Z" fill="#911F27"/>
<path d="M24.9132 63.8451L11.7749 42.5929C10.5063 40.5407 7.41874 39.7039 4.87208 40.7218L1.43819 42.0943C0.159617 42.6058 -0.360647 43.8596 0.277523 44.8893L15.7462 69.8502C16.3823 70.8796 17.9297 71.2892 19.198 70.7846L22.5877 69.4296C25.1443 68.4079 26.1864 65.905 24.9132 63.8451Z" fill="#911F27"/>
<path d="M85.8909 34.3491C83.7767 33.101 80.8377 33.3506 79.0847 34.8899L64.991 48.868C64.0113 49.7 62.155 50.1992 61.1754 50.1992H49.1611C47.7172 50.1992 46.583 49.2841 46.583 48.1192C46.583 46.9542 47.7172 46.0391 49.1611 46.0391C52.6141 46.0391 56.4369 46.0391 59.4736 46.0391C62.3096 46.0391 64.6299 44.167 64.6299 41.8789C64.6299 39.5909 62.3096 37.7188 59.4736 37.7188C47.3657 37.7188 58.915 37.7188 45.9643 37.7188C44.6793 37.7188 44.0386 37.0613 43.0252 36.3458C39.0362 33.4496 33.0653 32.0543 27.0204 33.1848C23.664 33.8124 21.4006 34.9064 19.1051 36.3733L19.0286 36.3232L15.2996 38.971L29.9543 62.6797H34.2938H59.4736C64.3205 62.6797 68.9613 60.8076 71.8488 57.6875L86.9736 40.2149C88.6751 38.3843 88.2111 35.7221 85.8909 34.3491Z" fill="#911F27"/>
</g>
<defs>
<clipPath id="clip0">
<rect width="88" height="71" fill="white"/>
</clipPath>
</defs>
</svg>
