<svg width="76" height="80" viewBox="0 0 76 80" fill="none" xmlns="http://www.w3.org/2000/svg">
<g clip-path="url(#clip0)">
<path d="M29.1393 13.0005C31.6741 13.0005 34.0423 11.2775 34.8842 8.52478L30.5269 6.89026L38.7094 7.21436C38.7276 7.21497 38.7458 7.21497 38.764 7.21497C39.5428 7.21497 40.188 6.55273 40.217 5.71045C40.2465 4.84863 39.6195 4.12354 38.8163 4.09241L34.6943 3.92883C33.7143 1.48376 31.4871 0 29.1348 0C24.873 0 21.9391 4.63013 23.5092 8.89099C24.45 11.4435 26.729 13.0005 29.1393 13.0005Z" fill="#911F27"/>
<path d="M20.3378 57.751C14.6156 57.751 9.97638 62.7314 9.97638 68.8752C9.97638 75.0197 14.6156 80.0001 20.3378 80.0001C26.06 80.0001 30.6992 75.0197 30.6992 68.8752C30.6986 62.7314 26.06 57.751 20.3378 57.751ZM20.3378 72.5502C18.4476 72.5502 16.9151 70.9047 16.9151 68.8752C16.9151 66.8458 18.4476 65.2009 20.3378 65.2009C22.2279 65.2009 23.7605 66.8458 23.7605 68.8752C23.7599 70.9047 22.2279 72.5502 20.3378 72.5502Z" fill="#911F27"/>
<path d="M55.648 57.751C49.9252 57.751 45.2866 62.7314 45.2866 68.8752C45.2866 75.0197 49.9252 80.0001 55.648 80.0001C61.3701 80.0001 66.0088 75.0197 66.0088 68.8752C66.0088 62.7314 61.3701 57.751 55.648 57.751ZM55.648 72.5502C53.7578 72.5502 52.2252 70.9047 52.2252 68.8752C52.2252 66.8458 53.7578 65.2009 55.648 65.2009C57.5381 65.2009 59.0701 66.8458 59.0701 68.8752C59.0701 70.9047 57.5381 72.5502 55.648 72.5502Z" fill="#911F27"/>
<path d="M63.6798 49.558C64.4058 39.3151 55.648 35.1268 55.648 35.1268L53.543 30.609L52.8568 27.672H55.5843C56.9418 27.672 58.0947 26.4794 58.0691 25.0219C58.0446 23.6083 56.9697 22.4706 55.648 22.4706H49.753C49.4819 22.4706 49.2164 22.5206 48.9663 22.6134C49.4716 21.884 49.6802 20.9264 49.4591 19.9761C49.0674 18.2939 47.4803 17.271 45.9136 17.6921L35.6574 20.3527V19.8882C35.6574 17.5084 33.8604 15.5791 31.644 15.5791H24.2949C22.0784 15.5791 20.281 17.5078 20.281 19.8882V41.8877H16.7758C17.7735 41.8877 18.5824 41.0192 18.5824 39.948V21.6088C18.5824 20.537 17.7735 19.6685 16.7758 19.6685H3.54593C2.54771 19.6685 1.73878 20.537 1.73878 21.6088V39.948C1.73878 41.0192 2.54771 41.8877 3.54593 41.8877H8.21985C7.46947 41.8877 6.86065 42.5414 6.86065 43.347V49.7911C6.86065 50.5968 7.46947 51.2499 8.21985 51.2499H9.91387C5.29396 54.406 2.08611 59.5238 1.16577 65.3789C0.875853 67.2222 2.21743 68.8976 3.95864 68.8976C5.34342 68.8976 6.51389 67.8191 6.74923 66.3536C7.86626 59.3895 13.5333 54.0703 20.3378 54.0703C27.9473 54.0703 34.1396 60.7244 34.1265 68.8976H41.8593C41.8559 66.5587 42.3647 64.1954 43.4425 61.9988H41.0049C41.5211 61.6252 41.952 61.1016 42.2311 60.4503L49.0299 44.5873C50.0048 42.3125 48.682 39.6587 46.3712 39.276L35.6574 37.5005V32.1312C35.0531 31.989 34.0276 32.1733 33.226 31.2322L27.5579 24.5574L34.334 29.4713C34.7194 29.7509 35.1611 29.9272 35.6233 29.9871C47.2938 31.4775 46.66 31.4244 46.992 31.4244C48.4518 31.4244 49.7132 30.2526 49.8911 28.6577C50.0827 26.9365 48.939 25.374 47.3353 25.1683L37.02 23.8439L30.8311 19.3553L36.5533 21.6442L47.4729 23.0461C50.172 23.3928 52.1951 26.0576 51.8512 28.9525C51.6329 30.7854 50.5591 32.2783 49.1135 33.0272L53.2934 50.9282C53.564 52.0873 54.5281 52.9192 55.6412 52.9186C63.8202 52.9149 70.477 60.0499 70.4912 68.8268V68.8756C70.4912 70.3118 71.5752 71.4763 72.9128 71.4763C74.2322 71.4763 75.3049 70.3441 75.3345 68.9354C75.3351 68.9086 75.3351 68.8799 75.3351 68.8555C75.3351 60.2697 70.5429 52.8636 63.6798 49.558ZM36.8489 51.2499C37.5992 51.2499 38.2075 50.5968 38.2075 49.7911V45.5657L40.6905 45.9771L36.1093 56.6649C34.6643 54.5171 32.848 52.6757 30.7617 51.2499H36.8489Z" fill="#911F27"/>
</g>
<defs>
<clipPath id="clip0">
<rect width="74.5098" height="80" fill="white" transform="translate(0.980408)"/>
</clipPath>
</defs>
</svg>
