<svg width="100" height="81" viewBox="0 0 100 81" fill="none" xmlns="http://www.w3.org/2000/svg">
<path d="M0.0501709 59.5698C0.0501709 59.1166 0.417548 58.7493 0.87073 58.7493H99.1795C99.6327 58.7493 100 59.1166 100 59.5698C100 67.1229 93.8771 73.2458 86.3241 73.2458H13.7262C6.17311 73.2458 0.0501709 67.1229 0.0501709 59.5698Z" fill="#911F27"/>
<path d="M50.025 0L84.7147 60.0844H15.3353L50.025 0Z" fill="#FF84A1"/>
<path d="M6.16615 52.1948C6.45894 51.4829 7.41264 51.3549 7.88281 51.9644L13.0517 58.6656C13.5219 59.2751 13.1559 60.165 12.3929 60.2675L4.00512 61.3933C3.24216 61.4957 2.65445 60.7338 2.94724 60.0218L6.16615 52.1948Z" fill="#911F27"/>
<path d="M15.3638 51.8678C15.7272 51.1891 16.6889 51.1584 17.095 51.8124L21.5875 59.0491C21.9935 59.7031 21.5393 60.5514 20.7699 60.576L12.2564 60.8483C11.487 60.8729 10.9795 60.0554 11.3429 59.3768L15.3638 51.8678Z" fill="#911F27"/>
<path d="M24.5014 51.9123C24.8897 51.2476 25.8519 51.2525 26.2334 51.9212L30.4545 59.3195C30.8359 59.9881 30.3506 60.819 29.5808 60.815L21.0631 60.7714C20.2933 60.7675 19.8165 59.9317 20.2048 59.267L24.5014 51.9123Z" fill="#911F27"/>
<path d="M33.632 51.8874C34.0203 51.2227 34.9825 51.2276 35.364 51.8963L39.5851 59.2946C39.9666 59.9632 39.4812 60.7941 38.7114 60.7901L30.1937 60.7465C29.4239 60.7426 28.9471 59.9068 29.3354 59.2421L33.632 51.8874Z" fill="#911F27"/>
<path d="M42.7877 51.8874C43.176 51.2227 44.1383 51.2276 44.5198 51.8963L48.7408 59.2946C49.1223 59.9632 48.6369 60.7941 47.8671 60.7901L39.3495 60.7465C38.5797 60.7426 38.1028 59.9068 38.4911 59.2421L42.7877 51.8874Z" fill="#911F27"/>
<path d="M52.7064 51.8874C53.0947 51.2227 54.057 51.2276 54.4385 51.8963L58.6595 59.2946C59.041 59.9632 58.5556 60.7941 57.7858 60.7901L49.2682 60.7465C48.4984 60.7426 48.0215 59.9068 48.4098 59.2421L52.7064 51.8874Z" fill="#911F27"/>
<path d="M62.625 51.8874C63.0133 51.2227 63.9756 51.2276 64.357 51.8963L68.5781 59.2946C68.9596 59.9632 68.4742 60.7941 67.7044 60.7901L59.1868 60.7465C58.417 60.7426 57.9401 59.9068 58.3284 59.2421L62.625 51.8874Z" fill="#911F27"/>
<path d="M71.7808 51.8874C72.1691 51.2227 73.1313 51.2276 73.5128 51.8963L77.7339 59.2946C78.1154 59.9632 77.63 60.7941 76.8602 60.7901L68.3425 60.7465C67.5727 60.7426 67.0959 59.9068 67.4842 59.2421L71.7808 51.8874Z" fill="#911F27"/>
<path d="M81.6995 51.8874C82.0878 51.2227 83.05 51.2276 83.4315 51.8963L87.6526 59.2946C88.0341 59.9632 87.5487 60.7941 86.7789 60.7901L78.2612 60.7465C77.4914 60.7426 77.0146 59.9068 77.4029 59.2421L81.6995 51.8874Z" fill="#911F27"/>
<path d="M91.5776 51.9766C91.9522 51.304 92.9143 51.2891 93.3094 51.9498L97.6819 59.2597C98.0771 59.9203 97.6089 60.761 96.8392 60.7729L88.3224 60.9046C87.5527 60.9165 87.0587 60.0907 87.4333 59.4181L91.5776 51.9766Z" fill="#911F27"/>
<path d="M50.025 0L56.3022 10.8724H43.7478L50.025 0Z" fill="#911F27"/>
</svg>
