<svg width="158" height="158" viewBox="0 0 158 158" fill="none" xmlns="http://www.w3.org/2000/svg">
<circle cx="79" cy="79" r="79" fill="#C4C4C4"/>
<path d="M104.664 101.914C102.291 104.756 98.9365 106.968 94.6006 108.55C90.2646 110.103 85.46 110.879 80.1865 110.879C74.6494 110.879 69.7861 109.678 65.5967 107.275C61.4365 104.844 58.2139 101.328 55.9287 96.7285C53.6729 92.1289 52.5156 86.7236 52.457 80.5127V76.1621C52.457 69.7754 53.5264 64.2529 55.665 59.5947C57.833 54.9072 60.9385 51.333 64.9814 48.8721C69.0537 46.3818 73.8145 45.1367 79.2637 45.1367C86.8516 45.1367 92.7842 46.9531 97.0615 50.5859C101.339 54.1895 103.873 59.4482 104.664 66.3623H91.832C91.2461 62.7002 89.9424 60.0195 87.9209 58.3203C85.9287 56.6211 83.1748 55.7715 79.6592 55.7715C75.1768 55.7715 71.7637 57.4561 69.4199 60.8252C67.0762 64.1943 65.8896 69.2041 65.8604 75.8545V79.9414C65.8604 86.6504 67.1348 91.7188 69.6836 95.1465C72.2324 98.5742 75.9678 100.288 80.8896 100.288C85.8408 100.288 89.3711 99.2334 91.4805 97.124V86.0938H79.4834V76.3818H104.664V101.914Z" fill="#3D3D3D"/>
</svg>
