<svg width="158" height="158" viewBox="0 0 158 158" fill="none" xmlns="http://www.w3.org/2000/svg">
<circle cx="79" cy="79" r="79" fill="#C4C4C4"/>
<path d="M50.9443 80.3291C50.9443 74.3545 52.0947 69.0293 54.3955 64.3535C56.6963 59.6777 59.999 56.0596 64.3037 53.499C68.6455 50.9385 73.6738 49.6582 79.3887 49.6582C87.5156 49.6582 94.1396 52.1445 99.2607 57.1172C104.419 62.0898 107.295 68.8438 107.889 77.3789L108 81.498C108 90.7383 105.421 98.1602 100.263 103.764C95.1045 109.33 88.1836 112.113 79.5 112.113C70.8164 112.113 63.877 109.33 58.6816 103.764C53.5234 98.1973 50.9443 90.627 50.9443 81.0527V80.3291ZM67.0312 81.498C67.0312 87.2129 68.1074 91.5918 70.2598 94.6348C72.4121 97.6406 75.4922 99.1436 79.5 99.1436C83.3965 99.1436 86.4395 97.6592 88.6289 94.6904C90.8184 91.6846 91.9131 86.8975 91.9131 80.3291C91.9131 74.7256 90.8184 70.3838 88.6289 67.3037C86.4395 64.2236 83.3594 62.6836 79.3887 62.6836C75.4551 62.6836 72.4121 64.2236 70.2598 67.3037C68.1074 70.3467 67.0312 75.0781 67.0312 81.498Z" fill="black"/>
</svg>
