<svg width="158" height="158" viewBox="0 0 158 158" fill="none" xmlns="http://www.w3.org/2000/svg">
<circle cx="79" cy="79" r="79" fill="#C4C4C4"/>
<path d="M79.6592 86.5771H69.1562V110H55.9727V46.0156H79.7471C87.3057 46.0156 93.1357 47.7002 97.2373 51.0693C101.339 54.4385 103.39 59.1992 103.39 65.3516C103.39 69.7168 102.438 73.3643 100.533 76.2939C98.6582 79.1943 95.8018 81.5088 91.9639 83.2373L105.807 109.385V110H91.6562L79.6592 86.5771ZM69.1562 75.8984H79.791C83.1016 75.8984 85.665 75.0635 87.4814 73.3936C89.2979 71.6943 90.2061 69.3652 90.2061 66.4062C90.2061 63.3887 89.3418 61.0156 87.6133 59.2871C85.9141 57.5586 83.292 56.6943 79.7471 56.6943H69.1562V75.8984Z" fill="#3D3D3D"/>
</svg>
